<svg xmlns="http://www.w3.org/2000/svg" viewBox="0 0 512 512" role="img" aria-labelledby="title">
  <title id="title">Novalyte AI logo mark</title>
  <defs>
    <radialGradient id="core" cx="50%" cy="50%" r="50%">
      <stop offset="0%" stop-color="#5eead4"/>
      <stop offset="100%" stop-color="#14b8a6"/>
    </radialGradient>
  </defs>
  <rect width="512" height="512" rx="128" fill="#050505"/>
  <g transform="scale(16)" stroke="#5eead4" stroke-width="1.5" stroke-linecap="round">
    <path d="M16 4 L16 9"/><path d="M16 23 L16 28"/>
    <path d="M4 16 L9 16"/><path d="M23 16 L28 16"/>
    <path d="M7.5 7.5 L11 11" opacity=".6"/><path d="M21 21 L24.5 24.5" opacity=".6"/>
    <path d="M24.5 7.5 L21 11" opacity=".6"/><path d="M11 21 L7.5 24.5" opacity=".6"/>
    <circle cx="16" cy="16" r="13" stroke="#14b8a6" stroke-width=".5" opacity=".25" fill="none"/>
    <path d="M16 8 C16.5 12.5 19.5 15.5 24 16 C19.5 16.5 16.5 19.5 16 24 C15.5 19.5 12.5 16.5 8 16 C12.5 15.5 15.5 12.5 16 8Z" fill="url(#core)" stroke="none"/>
  </g>
</svg>
